0
SECTION
2
HEADER
9
$INSUNITS
70
4
9
$ACADVER
1
AC1014
9
$HANDSEED
5
FFFF
0
ENDSEC
0
SECTION
2
TABLES
0
TABLE
2
VPORT
5
8
100
AcDbSymbolTable
0
ENDTAB
0
TABLE
2
LTYPE
5
5
100
AcDbSymbolTable
0
LTYPE
5
14
100
AcDbSymbolTableRecord
100
AcDbLinetypeTableRecord
2
BYBLOCK
70
0
0
LTYPE
5
15
100
AcDbSymbolTableRecord
100
AcDbLinetypeTableRecord
2
BYLAYER
70
0
0
LTYPE
5
16
100
AcDbSymbolTableRecord
100
AcDbLinetypeTableRecord
2
DASHED
70
0
3
Dashed __ __ __ __ __ __ __ __ __ __ __ __ __ _
72
65
73
2
40
0.75
49
0.5
74
0
49
-0.25
74
0
0
ENDTAB
0
TABLE
2
LAYER
5
2
100
AcDbSymbolTable
70
2
0
LAYER
5
50
100
AcDbSymbolTableRecord
100
AcDbLayerTableRecord
2
0
70
0
62
7
6
CONTINUOUS
0
ENDTAB
0
TABLE
2
STYLE
5
3
100
AcDbSymbolTable
70
1
0
STYLE
5
11
100
AcDbSymbolTableRecord
100
AcDbTextStyleTableRecord
2
STANDARD
70
0
0
ENDTAB
0
TABLE
2
VIEW
5
6
100
AcDbSymbolTable
70
0
0
ENDTAB
0
TABLE
2
UCS
5
7
100
AcDbSymbolTable
70
0
0
ENDTAB
0
TABLE
2
APPID
5
9
100
AcDbSymbolTable
70
2
0
APPID
5
12
100
AcDbSymbolTableRecord
100
AcDbRegAppTableRecord
2
ACAD
70
0
0
ENDTAB
0
TABLE
2
DIMSTYLE
5
A
100
AcDbSymbolTable
70
1
0
ENDTAB
0
TABLE
2
BLOCK_RECORD
5
1
100
AcDbSymbolTable
70
1
0
BLOCK_RECORD
5
1F
100
AcDbSymbolTableRecord
100
AcDbBlockTableRecord
2
*MODEL_SPACE
0
BLOCK_RECORD
5
1B
100
AcDbSymbolTableRecord
100
AcDbBlockTableRecord
2
*PAPER_SPACE
0
ENDTAB
0
ENDSEC
0
SECTION
2
BLOCKS
0
BLOCK
5
20
100
AcDbEntity
100
AcDbBlockBegin
2
*MODEL_SPACE
0
ENDBLK
5
21
100
AcDbEntity
100
AcDbBlockEnd
0
BLOCK
5
1C
100
AcDbEntity
100
AcDbBlockBegin
2
*PAPER_SPACE
0
ENDBLK
5
1D
100
AcDbEntity
100
AcDbBlockEnd
0
ENDSEC
0
SECTION
2
ENTITIES
0
LWPOLYLINE
5
100
100
AcDbEntity
8
0
100
AcDbPolyline
90
8
70
1
43
0.0
10
-12.957424874258534
20
25.899999999999999
42
0.41421356237310247
10
-14.100000000000001
20
24.757424874258525
10
-14.1
20
-24.757424874258547
42
0.41421356237309681
10
-12.957424874258546
20
-25.900000000000013
10
12.957424874258546
20
-25.900000000000013
42
0.41421356237309959
10
14.100000000000016
20
-24.75742487425855
10
14.100000000000012
20
24.757424874258525
42
0.41421356237310303
10
12.957424874258548
20
25.899999999999999
0
CIRCLE
5
101
100
AcDbEntity
8
0
100
AcDbCircle
10
-11.899999999999991
20
23.700000000000003
30
0
40
1.4000000000000021
210
4.9303806576313512e-32
220
-1.5260733877114027e-62
230
1
0
CIRCLE
5
102
100
AcDbEntity
8
0
100
AcDbCircle
10
11.900000000000016
20
23.700000000000003
30
0
40
1.4000000000000021
210
4.9303806576313512e-32
220
-1.5260733877114027e-62
230
1
0
CIRCLE
5
103
100
AcDbEntity
8
0
100
AcDbCircle
10
11.900000000000016
20
-23.700000000000003
30
0
40
1.4000000000000021
210
4.9303806576313512e-32
220
-1.5260733877114027e-62
230
1
0
CIRCLE
5
104
100
AcDbEntity
8
0
100
AcDbCircle
10
-11.899999999999988
20
-23.70000000000001
30
0
40
1.4000000000000021
210
4.9303806576313512e-32
220
-1.5260733877114027e-62
230
1
0
CIRCLE
5
105
100
AcDbEntity
8
0
100
AcDbCircle
10
-12.699999999999982
20
-13.155999999999985
30
0
40
0.6999999999999994
210
4.9303806576313424e-32
220
-1.0173822584742692e-62
230
1
0
CIRCLE
5
106
100
AcDbEntity
8
0
100
AcDbCircle
10
-12.699999999999992
20
-10.615999999999989
30
0
40
0.6999999999999994
210
4.9303806576313424e-32
220
-1.0173822584742692e-62
230
1
0
CIRCLE
5
107
100
AcDbEntity
8
0
100
AcDbCircle
10
-12.699999999999998
20
-8.0759999999999952
30
0
40
0.6999999999999994
210
4.9303806576313424e-32
220
-1.0173822584742692e-62
230
1
0
CIRCLE
5
108
100
AcDbEntity
8
0
100
AcDbCircle
10
-12.70000000000001
20
-5.5359999999999951
30
-5.5511151231257827e-16
40
0.70000000000000007
210
1.8327529440632201e-46
220
-3.7818790453234505e-77
230
1
0
CIRCLE
5
109
100
AcDbEntity
8
0
100
AcDbCircle
10
-12.700000000000015
20
-2.9959999999999942
30
-5.5511151231257827e-16
40
0.69999999999999962
210
4.9303806576313424e-32
220
-1.0173822584742688e-62
230
1
0
CIRCLE
5
110
100
AcDbEntity
8
0
100
AcDbCircle
10
-12.700000000000028
20
-0.45599999999999341
30
-5.5511151231257827e-16
40
0.6999999999999994
210
4.9303806576313424e-32
220
-1.017382258474269e-62
230
1
0
CIRCLE
5
111
100
AcDbEntity
8
0
100
AcDbCircle
10
-12.700000000000038
20
2.0839999999999934
30
-5.5511151231257827e-16
40
0.69999999999999962
210
4.9303806576313424e-32
220
-1.0173822584742688e-62
230
1
0
CIRCLE
5
112
100
AcDbEntity
8
0
100
AcDbCircle
10
-12.700000000000045
20
4.6239999999999934
30
-5.5511151231257827e-16
40
0.70000000000000007
210
1.8327529440632201e-46
220
-3.7818790453234505e-77
230
1
0
CIRCLE
5
113
100
AcDbEntity
8
0
100
AcDbCircle
10
-12.700000000000053
20
7.1640000000000086
30
-5.5511151231257827e-16
40
0.70000000000000007
210
1.8327529440632201e-46
220
-3.7818790453234505e-77
230
1
0
CIRCLE
5
114
100
AcDbEntity
8
0
100
AcDbCircle
10
-12.700000000000063
20
9.7040000000000113
30
0
40
0.6999999999999994
210
4.9303806576313424e-32
220
-1.0173822584742692e-62
230
1
0
CIRCLE
5
115
100
AcDbEntity
8
0
100
AcDbCircle
10
-12.700000000000069
20
12.243999999999996
30
0
40
0.6999999999999994
210
4.9303806576313424e-32
220
-1.0173822584742692e-62
230
1
0
CIRCLE
5
116
100
AcDbEntity
8
0
100
AcDbCircle
10
-12.700000000000077
20
14.783999999999997
30
0
40
0.6999999999999994
210
4.9303806576313424e-32
220
-1.0173822584742692e-62
230
1
0
CIRCLE
5
117
100
AcDbEntity
8
0
100
AcDbCircle
10
-12.700000000000088
20
17.323999999999995
30
0
40
0.6999999999999994
210
4.9303806576313424e-32
220
-1.0173822584742692e-62
230
1
0
CIRCLE
5
118
100
AcDbEntity
8
0
100
AcDbCircle
10
-12.700000000000099
20
19.863999999999997
30
0
40
0.6999999999999994
210
4.9303806576313424e-32
220
-1.0173822584742692e-62
230
1
0
CIRCLE
5
119
100
AcDbEntity
8
0
100
AcDbCircle
10
12.700000000000124
20
19.863999999999997
30
5.5511151231257827e-16
40
0.6999999999999994
210
4.9303806576313424e-32
220
-1.0173822584742692e-62
230
1
0
CIRCLE
5
120
100
AcDbEntity
8
0
100
AcDbCircle
10
12.700000000000111
20
17.324000000000009
30
5.5511151231257827e-16
40
0.6999999999999994
210
4.9303806576313424e-32
220
-1.0173822584742692e-62
230
1
0
CIRCLE
5
121
100
AcDbEntity
8
0
100
AcDbCircle
10
12.700000000000113
20
14.78400000000001
30
5.5511151231257827e-16
40
0.6999999999999994
210
4.9303806576313424e-32
220
-1.0173822584742692e-62
230
1
0
CIRCLE
5
122
100
AcDbEntity
8
0
100
AcDbCircle
10
12.700000000000101
20
12.24400000000001
30
5.5511151231257827e-16
40
0.6999999999999994
210
4.9303806576313424e-32
220
-1.0173822584742692e-62
230
1
0
CIRCLE
5
123
100
AcDbEntity
8
0
100
AcDbCircle
10
12.700000000000101
20
9.7040000000000113
30
5.5511151231257827e-16
40
0.6999999999999994
210
4.9303806576313424e-32
220
-1.0173822584742692e-62
230
1
0
CIRCLE
5
124
100
AcDbEntity
8
0
100
AcDbCircle
10
12.700000000000085
20
7.1640000000000086
30
0
40
0.70000000000000007
210
1.8327529440632201e-46
220
-3.7818790453234505e-77
230
1
0
CIRCLE
5
125
100
AcDbEntity
8
0
100
AcDbCircle
10
12.700000000000085
20
4.6240000000000077
30
0
40
0.70000000000000007
210
1.8327529440632201e-46
220
-3.7818790453234505e-77
230
1
0
CIRCLE
5
126
100
AcDbEntity
8
0
100
AcDbCircle
10
12.70000000000007
20
2.0840000000000067
30
0
40
0.69999999999999962
210
4.9303806576313424e-32
220
-1.0173822584742688e-62
230
1
0
CIRCLE
5
127
100
AcDbEntity
8
0
100
AcDbCircle
10
12.70000000000007
20
-0.45599999999999341
30
0
40
0.69999999999999951
210
1.8327529440632213e-46
220
-3.7818790453234558e-77
230
1
0
CIRCLE
5
128
100
AcDbEntity
8
0
100
AcDbCircle
10
12.700000000000045
20
-2.9959999999999942
30
0
40
0.69999999999999962
210
4.9303806576313424e-32
220
-1.0173822584742688e-62
230
1
0
CIRCLE
5
129
100
AcDbEntity
8
0
100
AcDbCircle
10
12.700000000000045
20
-5.5359999999999951
30
0
40
0.70000000000000007
210
1.8327529440632201e-46
220
-3.7818790453234505e-77
230
1
0
CIRCLE
5
130
100
AcDbEntity
8
0
100
AcDbCircle
10
12.700000000000024
20
-8.075999999999981
30
0
40
0.6999999999999994
210
4.9303806576313424e-32
220
-1.0173822584742692e-62
230
1
0
CIRCLE
5
131
100
AcDbEntity
8
0
100
AcDbCircle
10
12.700000000000024
20
-10.615999999999984
30
0
40
0.6999999999999994
210
4.9303806576313424e-32
220
-1.0173822584742692e-62
230
1
0
CIRCLE
5
132
100
AcDbEntity
8
0
100
AcDbCircle
10
12.700000000000024
20
-13.155999999999985
30
0
40
0.6999999999999994
210
4.9303806576313424e-32
220
-1.0173822584742692e-62
230
1
0
CIRCLE
5
133
100
AcDbEntity
8
0
100
AcDbCircle
10
12.700000000000012
20
-15.695999999999986
30
0
40
0.6999999999999994
210
4.9303806576313424e-32
220
-1.0173822584742692e-62
230
1
0
CIRCLE
5
134
100
AcDbEntity
8
0
100
AcDbCircle
10
-12.699999999999974
20
-15.695999999999986
30
0
40
0.6999999999999994
210
4.9303806576313424e-32
220
-1.0173822584742692e-62
230
1
0
ENDSEC
0
SECTION
2
OBJECTS
0
DICTIONARY
5
C
100
AcDbDictionary
3
ACAD_GROUP
350
D
3
ACAD_MLINESTYLE
350
17
0
DICTIONARY
5
D
100
AcDbDictionary
0
DICTIONARY
5
1A
330
C
100
AcDbDictionary
0
DICTIONARY
5
17
100
AcDbDictionary
0
ENDSEC
0
EOF
